<?xml version="1.0" encoding="UTF-8" standalone="no" ?>
<!DOCTYPE svg PUBLIC "-//W3C//DTD SVG 1.1//EN" "http://www.w3.org/Graphics/SVG/1.1/DTD/svg11.dtd">
<svg xmlns="http://www.w3.org/2000/svg" xmlns:xlink="http://www.w3.org/1999/xlink" version="1.1" width="1080" height="1080" viewBox="0 0 1080 1080" xml:space="preserve">
<desc>Created with Fabric.js 5.2.4</desc>
<defs>
</defs>
<rect x="0" y="0" width="100%" height="100%" fill="transparent"></rect>
<g transform="matrix(1 0 0 1 540 540)" id="849d777a-5914-4ab6-8287-9e66eca6e72c"  >
<rect style="stroke: none; stroke-width: 1; stroke-dasharray: none; stroke-linecap: butt; stroke-dashoffset: 0; stroke-linejoin: miter; stroke-miterlimit: 4; fill: rgb(255,255,255); fill-rule: nonzero; opacity: 1; visibility: hidden;" vector-effect="non-scaling-stroke"  x="-540" y="-540" rx="0" ry="0" width="1080" height="1080" />
</g>
<g transform="matrix(1 0 0 1 540 540)" id="bf71a668-cb80-4e64-a643-07464d5fd71c"  >
</g>
<g transform="matrix(1.33 0 0 1.33 578.7 518.01)"  >
<path style="stroke: none; stroke-width: 1; stroke-dasharray: none; stroke-linecap: butt; stroke-dashoffset: 0; stroke-linejoin: miter; stroke-miterlimit: 4; fill: rgb(0,0,0); fill-rule: nonzero; opacity: 1;" vector-effect="non-scaling-stroke"  transform=" translate(-349.41, -280.02)" d="M 541.29 245.53 C 506.056 234.901 482.513 251.5612 461.65299999999996 286.655 C 455.35999999999996 296.78 437.94199999999995 337.81499999999994 437.74299999999994 337.93999999999994 L 436.22349999999994 339.15479999999997 C 436.01646999999997 339.36573999999996 371.89149999999995 349.86179999999996 360.6334999999999 387.4668 C 360.23115999999993 388.81059999999997 358.0514999999999 388.4785 357.7779999999999 388.11524 C 357.5826899999999 387.85351999999995 357.5045599999999 387.2793 357.6139399999999 386.91213999999997 C 369.6919399999999 346.55713999999995 405.1689399999999 337.08813999999995 419.8639399999999 334.88913999999994 L 426.8131399999999 333.84613999999993 C 426.8131399999999 333.84613999999993 450.7541399999999 113.96613999999994 452.5901399999999 99.77613999999994 C 454.1292399999999 87.85413999999994 450.6565399999999 75.18213999999995 434.5901399999999 72.06113999999994 C 421.7031399999999 69.55723999999994 411.3441399999999 76.21733999999994 407.7031399999999 92.33813999999994 L 377.0081399999999 272.7481399999999 C 377.0081399999999 272.7481399999999 387.1331399999999 275.5411399999999 388.19213999999994 275.99423999999993 C 388.67260999999996 276.2012699999999 388.87963999999994 276.5137699999999 388.96557999999993 276.74423999999993 C 389.1101099999999 277.12314999999995 388.98120499999993 283.0176399999999 388.9382359999999 283.11143999999996 C 388.5593259999999 283.93566 346.6452359999999 280.13874 346.4502359999999 279.50983999999994 C 346.4228919999999 279.41608999999994 346.3252359999999 273.5176399999999 346.5283609999999 273.1426399999999 C 346.6299209999999 272.9512299999999 346.8799209999999 272.6113899999999 347.4424209999999 272.4473299999999 C 348.1533609999999 272.24029999999993 360.25142099999994 271.1465299999999 360.25142099999994 271.1465299999999 L 354.73192099999994 54.02652999999992 C 354.84911099999994 47.64762999999992 352.00922099999997 28.41752999999992 332.23192099999994 28.41752999999992 C 315.61092099999996 28.41752999999992 309.3219209999999 39.62852999999992 309.05192099999994 53.99952999999992 L 303.54802099999995 268.5995299999999 C 303.54802099999995 268.5995299999999 321.09902099999994 270.0057299999999 321.220021 270.1972299999999 C 321.45440099999996 270.56050999999985 321.387991 276.4628299999999 321.360641 276.5644299999999 C 321.23173099999997 277.1464599999999 279.477641 282.0527299999999 278.98164099999997 281.1464299999999 C 278.93086 281.05658599999987 278.770701 275.1698299999999 278.88789099999997 274.77922999999987 C 278.95429699999994 274.55656999999985 279.12227099999996 274.24016999999986 279.55977099999996 274.0135999999999 C 280.46211099999994 273.5448499999999 282.67307099999994 272.5916999999999 287.33317099999994 271.52139999999986 L 296.2159709999999 269.49409999999983 L 260.19597099999993 78.64409999999984 C 257.97717099999994 65.94509999999984 248.67297099999993 55.83509999999984 233.57897099999994 58.41009999999984 C 213.77797099999995 61.78509999999984 214.63397099999995 83.47609999999983 215.22397099999995 86.81209999999984 L 242.80997099999996 280.27209999999985 C 242.80997099999996 280.27209999999985 255.45097099999995 277.57289999999983 255.82997099999997 277.57289999999983 C 256.669811 277.57289999999983 257.380771 283.7486999999998 257.376871 284.4205999999998 C 257.372965 285.0924799999998 219.134871 301.4945999999998 218.16587099999998 300.4125999999998 C 217.94712099999998 300.17821999999984 217.85337099999998 294.3070999999998 217.86900099999997 294.02979999999985 C 217.89243799999997 293.7290199999999 231.34900099999996 284.79539999999986 231.34900099999996 284.79539999999986 L 193.96200099999996 147.36539999999985 C 191.43470099999996 139.07239999999985 186.34480099999996 125.20139999999985 167.57500099999996 130.09939999999986 C 147.69600099999997 135.28689999999986 152.39500099999995 157.13439999999986 153.43000099999995 160.55639999999985 C 178.30500099999995 258.13439999999986 186.43000099999995 328.42639999999983 189.71900099999993 347.4463999999998 C 201.12500099999994 413.4773999999998 232.39500099999992 484.1463999999998 237.73900099999994 493.16639999999984 C 239.81710099999995 496.6702999999998 239.54760099999996 520.7563999999999 240.53200099999995 523.9673999999999 C 241.93040099999996 528.5220999999999 245.08670099999995 531.6157999999999 254.81300099999996 531.6157999999999 L 393.11300099999994 531.6157999999999 C 393.11300099999994 531.6157999999999 403.44900099999995 529.8305999999999 407.33600099999995 522.5455 C 410.12900099999996 517.3032999999999 411.21100099999995 510.5224999999999 411.38290099999995 502.69749999999993 C 411.57431099999997 494.0919999999999 411.78134099999994 484.35349999999994 416.91410099999996 476.49049999999994 C 417.31254099999995 476.05299999999994 453.64810099999994 443.90849999999995 463.387101 427.36549999999994 C 484.321101 391.79949999999997 543.129101 258.2554999999999 545.828101 252.63549999999995 C 545.8398199999999 252.62378199999995 549.4062009999999 247.97529999999995 541.2851009999999 245.52999999999994 z" stroke-linecap="round" />
</g>
</svg>