<?xml version="1.0" encoding="UTF-8" standalone="no" ?>
<!DOCTYPE svg PUBLIC "-//W3C//DTD SVG 1.1//EN" "http://www.w3.org/Graphics/SVG/1.1/DTD/svg11.dtd">
<svg xmlns="http://www.w3.org/2000/svg" xmlns:xlink="http://www.w3.org/1999/xlink" version="1.1" width="1080" height="1080" viewBox="10.71 2.14 1080 1080" xml:space="preserve">
<desc>Created with Fabric.js 5.2.4</desc>
<defs>
</defs>
<rect x="0" y="0" width="100%" height="100%" fill="transparent"></rect>
<g transform="matrix(1 0 0 1 540 540)" id="849d777a-5914-4ab6-8287-9e66eca6e72c"  >
<rect style="stroke: none; stroke-width: 1; stroke-dasharray: none; stroke-linecap: butt; stroke-dashoffset: 0; stroke-linejoin: miter; stroke-miterlimit: 4; fill: rgb(255,255,255); fill-rule: nonzero; opacity: 1; visibility: hidden;" vector-effect="non-scaling-stroke"  x="-540" y="-540" rx="0" ry="0" width="1080" height="1080" />
</g>
<g transform="matrix(1 0 0 1 540 540)" id="bf71a668-cb80-4e64-a643-07464d5fd71c"  >
</g>
<g transform="matrix(1.22 0 0 1.22 540 513.68)"  >
<path style="stroke: none; stroke-width: 1; stroke-dasharray: none; stroke-linecap: butt; stroke-dashoffset: 0; stroke-linejoin: miter; stroke-miterlimit: 4; fill: rgb(0,0,0); fill-rule: nonzero; opacity: 1;" vector-effect="non-scaling-stroke"  transform=" translate(-349.99, -280.4)" d="M 270.04 455.17 C 267.28610000000003 454.79891000000003 265.15720000000005 452.42 265.04 449.44730000000004 C 264.92281 446.47460000000007 266.8603 443.8575 269.5869 443.30280000000005 L 332.5209 430.4508000000001 C 353.8179 425.7789000000001 366.8879 408.4428000000001 364.2319 388.2988000000001 C 362.3686 374.1468000000001 350.0799 363.4868000000001 333.6499 361.7598000000001 C 331.7554 361.5644900000001 330.0874 360.3496000000001 329.2202 358.5410000000001 C 328.35301 356.7285000000001 328.39597999999995 354.5722000000001 329.33738999999997 352.80270000000013 C 333.53659 344.9472000000001 334.79049 335.3297000000001 332.95459 324.9977000000001 C 331.44289 316.4977000000001 327.93119 309.3687000000001 322.49759 303.8177000000001 C 320.26709 301.5404000000001 320.16949 297.7630000000001 322.27884 295.35680000000013 C 327.93114 288.91150000000016 330.09524 280.2088000000001 329.32964 267.15380000000016 C 328.95855 260.91160000000013 326.44684 255.07580000000016 321.86874 249.81780000000015 C 320.66954 248.43890000000016 320.14214 246.53660000000013 320.45074 244.67720000000014 C 320.75933 242.81780000000015 321.85694 241.22020000000015 323.42343999999997 240.36470000000014 C 328.85704 237.40770000000015 333.09533999999996 233.15770000000015 336.02844 227.72370000000015 C 337.09094 225.75100000000015 339.04014 224.61040000000014 341.24724 224.74320000000014 C 343.36834 224.89554000000015 345.23553999999996 226.32910000000015 346.04803999999996 228.43460000000013 C 357.52804 258.09860000000015 378.92704 267.1646000000001 416.63003999999995 270.6886000000001 C 427.95403999999996 271.74720000000013 427.63003999999995 267.60270000000014 426.64203999999995 267.3995000000001 C 347.55603999999994 250.9895000000001 344.84903999999995 188.54050000000012 344.12603999999993 187.90350000000012 C 343.40728999999993 187.27069000000012 342.43073999999996 187.0636600000001 341.53223999999994 187.34881000000013 C 326.21623999999997 192.32541000000012 304.2042399999999 194.89571000000012 303.98923999999994 194.91911000000013 C 303.62595999999996 194.95817200000013 303.26267999999993 195.09099000000012 302.9306399999999 195.29802000000012 C 302.8759519999999 196.08708000000013 302.81735999999995 197.10662000000013 302.74704999999994 198.32142000000013 C 301.49704999999994 218.36842000000013 297.7079499999999 279.39142000000015 258.18805 293.26242000000013 C 256.66855 293.80148000000014 255.02004999999997 293.61398000000014 253.62554999999998 292.74289000000016 C 252.24665 291.8796100000002 251.27394999999999 290.4225900000002 250.95364999999998 288.74289000000016 C 246.60985 265.61389000000014 227.06265 151.16289000000015 229.85164999999998 147.24289000000016 C 231.01574999999997 145.60229000000015 385.47164999999995 103.59789000000015 393.11164999999994 103.59789000000015 C 394.0960299999999 103.59789000000015 394.8968499999999 103.67210900000015 395.62724999999995 103.88305000000015 C 411.36924999999997 108.49245000000015 510.41724999999997 185.12905000000015 511.00724999999994 185.48105000000015 C 517.35885 189.37165000000016 572.3622499999999 195.63305000000014 575.21025 197.70805000000016 C 583.51105 203.74325000000016 586.40525 211.07105000000016 587.26125 213.94205000000017 C 587.43313 214.53580000000017 587.53078 215.15685000000016 587.53078 215.77795000000017 L 587.5346860000001 387.38795000000016 C 587.2221860000001 395.7590500000002 571.6396860000001 407.8489500000002 563.694686 407.8489500000002 C 548.5146860000001 407.85285600000014 372.4046860000001 469.0049500000002 270.04468600000007 455.1729500000002 z M 215.50500000000002 447.4864 C 203.32500000000002 447.4864 188.08700000000002 441.8028 185.235 425.7754 C 181.9538 407.3884 196.79700000000003 395.5804 212.973 392.0374 L 320.613 368.4284 C 323.406 367.81121 326.2732 367.49871 329.1247 367.49871 C 344.6087 367.49871 357.03470000000004 376.60421 358.68370000000004 389.14371 C 360.90250000000003 405.98771 349.70320000000004 420.55371 331.43370000000004 424.55371 L 223.26370000000003 446.65171000000004 C 221.02540000000002 447.18687000000006 218.28320000000002 447.48765000000003 215.49810000000002 447.48765000000003 z M 165.14600000000002 395.4354 C 149.14200000000002 395.4354 135.4 386.326 132.65 365.84540000000004 C 130.1969 347.55640000000005 140.93120000000002 334.3724 161.31 327.9664 C 161.31 327.9664 293.25 299.3684 296.38 299.3684 C 313.118 299.3684 324.454 309.1184 327.45799999999997 326.1184 C 331.16499999999996 347.0244 320.7002 362.2824 299.45799999999997 366.9384 L 173.98799999999997 394.4584 C 171.03879999999998 395.10292999999996 168.05829999999997 395.43496 165.14819999999997 395.43496 z M 147.013 315.24440000000004 C 133.529 315.24440000000004 113.20100000000001 307.7522 112.482 287.11140000000006 C 111.72419 265.6704000000001 122.55199999999999 253.75640000000007 144.638 251.71340000000006 L 232.431 246.02980000000005 C 235.2083 245.79542000000006 237.7279 247.91650000000004 238.26690000000002 250.87750000000005 C 242.42310000000003 273.86550000000005 245.76690000000002 291.5495000000001 246.78640000000001 296.95550000000003 C 247.40359 300.20160000000004 245.45440000000002 303.37350000000004 242.4231 304.03360000000004 L 215.4931 309.93980000000005 C 215.25872 309.990581 149.8681 315.11560000000003 149.8681 315.11560000000003 C 149.02826 315.197631 148.0478 315.24451000000005 147.0126 315.24451000000005 z M 311.323 295.8104 C 310.74097 295.8104 310.1628 295.71665 309.59639999999996 295.51743 C 305.4675 294.08383 301.02219999999994 293.36123 296.3814 293.36123 C 294.5845 293.36123 292.6002 293.50185 290.315 293.79091999999997 C 287.9634 294.07608 285.6236 292.72841999999997 284.5962 290.39642 C 283.56100000000004 288.06831999999997 284.03761000000003 285.29091999999997 285.7681 283.50192 C 288.2759 280.90422 290.3384 278.43942 292.07280000000003 275.96281999999997 C 296.82280000000003 269.18551999999994 300.58450000000005 260.99782 303.2678 251.63081999999997 C 303.79514 249.79491999999996 305.1037 248.34171999999998 306.79510000000005 247.71671999999998 C 308.4904 247.08781 310.35760000000005 247.36906 311.81850000000003 248.46671999999998 C 319.3068 254.05651999999998 323.32250000000005 260.47472 323.74050000000005 267.52871999999996 C 324.5569100000001 281.44271999999995 321.98660000000007 289.05971999999997 314.54910000000007 294.70471999999995 C 313.59598000000005 295.43519 312.4671000000001 295.81021999999996 311.32250000000005 295.81021999999996 z M 229.546 239.41240000000002 C 229.522562 239.41630600000002 229.479593 239.41630600000002 229.43272 239.41240000000002 L 166.17872 239.41240000000002 C 149.22572 239.41240000000002 131.11272 231.05300000000003 131.11272 207.5884 C 131.11272 186.6934 148.75372 175.7644 166.17872 175.7644 L 220.61972 175.7644 C 223.33452 175.7644 225.66662 177.85819999999998 226.13532 180.73319999999998 C 228.90872000000002 197.69019999999998 231.89702 215.0852 234.73692 231.1392 C 235.00645 231.83841999999999 235.14708 232.60799999999998 235.14708 233.40869999999998 C 235.14708 236.72509999999997 232.64318 239.41259999999997 229.54548 239.41259999999997 z M 312.765 237.82260000000002 C 311.42519999999996 237.82260000000002 310.1088 237.30698 309.0814 236.33820000000003 C 307.6986 235.03740000000002 306.99159999999995 233.09210000000002 307.2064 231.13120000000004 C 308.308 220.86120000000003 308.17515 211.84620000000004 307.86656 206.08820000000003 C 307.69858999999997 202.96710000000002 309.78846 200.23660000000004 312.66736 199.79910000000004 C 316.31966 199.24441000000004 321.95255999999995 198.31470000000004 328.02236 197.03350000000003 C 330.96376 196.40069000000003 333.84265999999997 198.38120000000004 334.54576 201.50230000000002 C 334.97544999999997 203.3968 335.19419999999997 205.1312 335.20592 206.65460000000002 C 335.32311 222.6586 327.64732 233.9556 314.14392 237.63860000000003 C 313.68689 237.75969000000003 313.22204 237.82219000000003 312.76502 237.82219000000003 z" stroke-linecap="round" />
</g>
</svg>