<?xml version="1.0" encoding="UTF-8" standalone="no" ?>
<!DOCTYPE svg PUBLIC "-//W3C//DTD SVG 1.1//EN" "http://www.w3.org/Graphics/SVG/1.1/DTD/svg11.dtd">
<svg xmlns="http://www.w3.org/2000/svg" xmlns:xlink="http://www.w3.org/1999/xlink" version="1.1" width="1080" height="1080" viewBox="0 0 1080 1080" xml:space="preserve">
<desc>Created with Fabric.js 5.2.4</desc>
<defs>
</defs>
<rect x="0" y="0" width="100%" height="100%" fill="transparent"></rect>
<g transform="matrix(1 0 0 1 540 540)" id="849d777a-5914-4ab6-8287-9e66eca6e72c"  >
<rect style="stroke: none; stroke-width: 1; stroke-dasharray: none; stroke-linecap: butt; stroke-dashoffset: 0; stroke-linejoin: miter; stroke-miterlimit: 4; fill: rgb(255,255,255); fill-rule: nonzero; opacity: 1; visibility: hidden;" vector-effect="non-scaling-stroke"  x="-540" y="-540" rx="0" ry="0" width="1080" height="1080" />
</g>
<g transform="matrix(1 0 0 1 540 540)" id="bf71a668-cb80-4e64-a643-07464d5fd71c"  >
</g>
<g transform="matrix(1.33 0 0 1.33 540 492.28)"  >
<path style="stroke: none; stroke-width: 1; stroke-dasharray: none; stroke-linecap: butt; stroke-dashoffset: 0; stroke-linejoin: miter; stroke-miterlimit: 4; fill: rgb(0,0,0); fill-rule: nonzero; opacity: 1;" vector-effect="non-scaling-stroke"  transform=" translate(-350.01, -280.02)" d="M 474.2 279.2 C 472.7625 263.313 459.997 252.634 442.442 252.634 C 438.7232 252.634 435.2897 253.23165999999998 432.055 254.0949 L 429.262 296.7709 C 429.14872 298.4506 427.7229 299.73179999999996 426.0823 299.6264 C 424.44169999999997 299.52092999999996 423.1878 298.06 423.30109999999996 296.3803 L 426.6058 245.96229999999997 C 426.6058 245.96229999999997 426.9183 240.87249999999997 424.2777 237.64199999999997 C 417.71909999999997 229.63809999999998 405.5007 224.63799999999998 393.8327 225.07599999999996 C 387.8952 225.29865999999996 387.0358 231.70489999999995 387.0358 231.70489999999995 L 383.5358 285.10689999999994 C 383.42252 286.78659999999996 381.9967 288.0677999999999 380.35609999999997 287.96239999999995 C 378.71549999999996 287.8569299999999 377.4616 286.39599999999996 377.57489999999996 284.71629999999993 L 387.31319999999994 64.15629999999993 C 387.31319999999994 48.984299999999934 379.12569999999994 32.652299999999926 361.14919999999995 32.652299999999926 C 345.18819999999994 32.652299999999926 334.8521999999999 41.445299999999925 332.04019999999997 57.41029999999992 C 331.80582 58.76579999999992 322.4582 231.3002999999999 319.3332 259.46029999999996 L 292.27119999999996 74.84029999999996 C 285.27119999999996 46.36029999999995 267.49019999999996 45.42229999999996 257.51719999999995 47.40629999999996 C 247.68519999999995 49.35549999999996 231.64619999999994 56.88289999999996 234.77119999999994 85.50829999999996 C 240.14229999999995 130.24229999999997 269.9511999999999 338.0983 269.9511999999999 338.0983 C 270.27541999999994 340.3053 268.7792999999999 342.3639 266.6230999999999 342.6842 C 264.4668999999999 343.00451 262.4355999999999 341.45759999999996 262.1113999999999 339.25059999999996 L 252.15049999999988 271.70359999999994 C 242.66999999999987 279.4418999999999 227.75549999999987 294.0985999999999 226.0454999999999 310.8795999999999 C 224.80719999999988 322.95359999999994 224.90489999999988 343.0515999999999 226.26815999999988 358.6685999999999 C 227.23690999999988 369.7505999999999 249.44015999999988 428.4145999999999 276.67415999999986 473.0085999999999 C 278.60775999999987 476.55939999999987 277.87725999999986 512.2275999999999 278.81475999999986 515.1995999999999 C 282.4319599999999 526.6406 298.4317599999999 527.3045999999999 301.64675999999986 527.3245999999999 L 433.03675999999984 527.3089749999999 C 433.7828499999998 527.359756 434.53285999999986 527.3831939999999 435.28285999999986 527.3831939999999 C 445.65385999999984 527.3831939999999 456.50185999999985 522.6448939999999 457.6498599999999 511.64119399999987 C 458.2201699999999 506.1684939999999 458.9428599999999 470.62519399999985 459.6810599999999 468.0391939999999 C 476.6970599999999 414.2931939999999 475.4190599999999 292.63919399999986 474.2040599999999 279.2191939999999 z" stroke-linecap="round" />
</g>
</svg>